<svg xmlns="http://www.w3.org/2000/svg" viewBox="0 0 64 64" role="img" aria-label="Chozen Studio">
  <defs>
    <linearGradient id="bg" x1="10" y1="58" x2="56" y2="8" gradientUnits="userSpaceOnUse">
      <stop stop-color="#2563eb"/>
      <stop offset=".52" stop-color="#38bdf8"/>
      <stop offset="1" stop-color="#14b8a6"/>
    </linearGradient>
    <linearGradient id="shine" x1="18" y1="18" x2="48" y2="48" gradientUnits="userSpaceOnUse">
      <stop stop-color="#fff"/>
      <stop offset="1" stop-color="#dbeafe"/>
    </linearGradient>
  </defs>
  <rect width="64" height="64" rx="16" fill="#07111f"/>
  <path d="M15 42.5V23.2c0-3.1 2.5-5.6 5.6-5.6h22.2c1.8 0 3.4.8 4.5 2.2l-5.5 5.1a4.9 4.9 0 0 0-3.2-1.2H24.2c-1.3 0-2.4 1.1-2.4 2.4v13.7c0 1.3 1.1 2.4 2.4 2.4h13.6c1.2 0 2.2-.8 2.4-2h-9.9v-7h18.4v5.2c0 6-4.8 10.8-10.8 10.8H21.7A6.7 6.7 0 0 1 15 42.5Z" fill="url(#bg)"/>
  <path d="M46.9 14.2l2.3 4.8 5.2 2.3-5.2 2.2-2.3 4.9-2.3-4.9-5.2-2.2 5.2-2.3 2.3-4.8Z" fill="url(#shine)"/>
  <path d="M23.5 31.6c0-4.3 3.5-7.8 7.8-7.8h7.1l-6.6 7.1h-1.1a2.8 2.8 0 0 0 0 5.6h2.2l-5.8 6.2a11.5 11.5 0 0 1-3.6-11.1Z" fill="url(#shine)" opacity=".95"/>
</svg>
